solid
 facet normal -1.000000e+00 -0.000000e+00 -0.000000e+00
   outer loop
     vertex -1.025000e+00  6.250000e-01  5.000000e-01
     vertex -1.025000e+00  6.250000e-01  0.000000e+00
     vertex -1.025000e+00 -6.250000e-01  5.000000e-01
   endloop
 endfacet
 facet normal -1.000000e+00  0.000000e+00  0.000000e+00
   outer loop
     vertex -1.025000e+00  6.250000e-01  0.000000e+00
     vertex -1.025000e+00 -6.250000e-01  0.000000e+00
     vertex -1.025000e+00 -6.250000e-01  5.000000e-01
   endloop
 endfacet
 facet normal  1.000000e+00 -0.000000e+00  0.000000e+00
   outer loop
     vertex -6.750000e-01 -6.250000e-01  5.000000e-01
     vertex -6.750000e-01  6.250000e-01  0.000000e+00
     vertex -6.750000e-01  6.250000e-01  5.000000e-01
   endloop
 endfacet
 facet normal  1.000000e+00 -0.000000e+00  0.000000e+00
   outer loop
     vertex -6.750000e-01 -6.250000e-01  5.000000e-01
     vertex -6.750000e-01 -6.250000e-01  0.000000e+00
     vertex -6.750000e-01  6.250000e-01  0.000000e+00
   endloop
 endfacet
 facet normal  0.000000e+00 -1.000000e+00  0.000000e+00
   outer loop
     vertex -1.025000e+00 -6.250000e-01  0.000000e+00
     vertex -6.750000e-01 -6.250000e-01  0.000000e+00
     vertex -1.025000e+00 -6.250000e-01  5.000000e-01
   endloop
 endfacet
 facet normal  0.000000e+00 -1.000000e+00  0.000000e+00
   outer loop
     vertex -1.025000e+00 -6.250000e-01  5.000000e-01
     vertex -6.750000e-01 -6.250000e-01  0.000000e+00
     vertex -6.750000e-01 -6.250000e-01  5.000000e-01
   endloop
 endfacet
 facet normal  0.000000e+00  1.000000e+00  0.000000e+00
   outer loop
     vertex -1.025000e+00  6.250000e-01  5.000000e-01
     vertex -6.750000e-01  6.250000e-01  0.000000e+00
     vertex -1.025000e+00  6.250000e-01  0.000000e+00
   endloop
 endfacet
 facet normal  0.000000e+00  1.000000e+00  0.000000e+00
   outer loop
     vertex -6.750000e-01  6.250000e-01  5.000000e-01
     vertex -6.750000e-01  6.250000e-01  0.000000e+00
     vertex -1.025000e+00  6.250000e-01  5.000000e-01
   endloop
 endfacet
 facet normal  0.000000e+00  0.000000e+00 -1.000000e+00
   outer loop
     vertex -1.025000e+00 -6.250000e-01  0.000000e+00
     vertex -1.025000e+00  6.250000e-01  0.000000e+00
     vertex -6.750000e-01  6.250000e-01  0.000000e+00
   endloop
 endfacet
 facet normal  0.000000e+00  0.000000e+00 -1.000000e+00
   outer loop
     vertex -6.750000e-01 -6.250000e-01  0.000000e+00
     vertex -1.025000e+00 -6.250000e-01  0.000000e+00
     vertex -6.750000e-01  6.250000e-01  0.000000e+00
   endloop
 endfacet
 facet normal  0.000000e+00  0.000000e+00  1.000000e+00
   outer loop
     vertex -6.750000e-01  6.250000e-01  5.000000e-01
     vertex -1.025000e+00  6.250000e-01  5.000000e-01
     vertex -1.025000e+00 -6.250000e-01  5.000000e-01
   endloop
 endfacet
 facet normal -0.000000e+00  0.000000e+00  1.000000e+00
   outer loop
     vertex -6.750000e-01  6.250000e-01  5.000000e-01
     vertex -1.025000e+00 -6.250000e-01  5.000000e-01
     vertex -6.750000e-01 -6.250000e-01  5.000000e-01
   endloop
 endfacet
 facet normal -1.000000e+00 -0.000000e+00 -0.000000e+00
   outer loop
     vertex  6.750000e-01  6.250000e-01  5.000000e-01
     vertex  6.750000e-01  6.250000e-01  0.000000e+00
     vertex  6.750000e-01 -6.250000e-01  5.000000e-01
   endloop
 endfacet
 facet normal -1.000000e+00  0.000000e+00  0.000000e+00
   outer loop
     vertex  6.750000e-01  6.250000e-01  0.000000e+00
     vertex  6.750000e-01 -6.250000e-01  0.000000e+00
     vertex  6.750000e-01 -6.250000e-01  5.000000e-01
   endloop
 endfacet
 facet normal  1.000000e+00 -0.000000e+00  0.000000e+00
   outer loop
     vertex  1.025000e+00 -6.250000e-01  5.000000e-01
     vertex  1.025000e+00  6.250000e-01  0.000000e+00
     vertex  1.025000e+00  6.250000e-01  5.000000e-01
   endloop
 endfacet
 facet normal  1.000000e+00 -0.000000e+00  0.000000e+00
   outer loop
     vertex  1.025000e+00 -6.250000e-01  5.000000e-01
     vertex  1.025000e+00 -6.250000e-01  0.000000e+00
     vertex  1.025000e+00  6.250000e-01  0.000000e+00
   endloop
 endfacet
 facet normal  0.000000e+00 -1.000000e+00  0.000000e+00
   outer loop
     vertex  6.750000e-01 -6.250000e-01  0.000000e+00
     vertex  1.025000e+00 -6.250000e-01  0.000000e+00
     vertex  1.025000e+00 -6.250000e-01  5.000000e-01
   endloop
 endfacet
 facet normal  0.000000e+00 -1.000000e+00  0.000000e+00
   outer loop
     vertex  6.750000e-01 -6.250000e-01  5.000000e-01
     vertex  6.750000e-01 -6.250000e-01  0.000000e+00
     vertex  1.025000e+00 -6.250000e-01  5.000000e-01
   endloop
 endfacet
 facet normal  0.000000e+00  1.000000e+00  0.000000e+00
   outer loop
     vertex  1.025000e+00  6.250000e-01  5.000000e-01
     vertex  1.025000e+00  6.250000e-01  0.000000e+00
     vertex  6.750000e-01  6.250000e-01  0.000000e+00
   endloop
 endfacet
 facet normal  0.000000e+00  1.000000e+00 -0.000000e+00
   outer loop
     vertex  1.025000e+00  6.250000e-01  5.000000e-01
     vertex  6.750000e-01  6.250000e-01  0.000000e+00
     vertex  6.750000e-01  6.250000e-01  5.000000e-01
   endloop
 endfacet
 facet normal  0.000000e+00  0.000000e+00 -1.000000e+00
   outer loop
     vertex  6.750000e-01 -6.250000e-01  0.000000e+00
     vertex  6.750000e-01  6.250000e-01  0.000000e+00
     vertex  1.025000e+00  6.250000e-01  0.000000e+00
   endloop
 endfacet
 facet normal  0.000000e+00  0.000000e+00 -1.000000e+00
   outer loop
     vertex  1.025000e+00 -6.250000e-01  0.000000e+00
     vertex  6.750000e-01 -6.250000e-01  0.000000e+00
     vertex  1.025000e+00  6.250000e-01  0.000000e+00
   endloop
 endfacet
 facet normal  0.000000e+00  0.000000e+00  1.000000e+00
   outer loop
     vertex  1.025000e+00  6.250000e-01  5.000000e-01
     vertex  6.750000e-01  6.250000e-01  5.000000e-01
     vertex  6.750000e-01 -6.250000e-01  5.000000e-01
   endloop
 endfacet
 facet normal -0.000000e+00  0.000000e+00  1.000000e+00
   outer loop
     vertex  1.025000e+00  6.250000e-01  5.000000e-01
     vertex  6.750000e-01 -6.250000e-01  5.000000e-01
     vertex  1.025000e+00 -6.250000e-01  5.000000e-01
   endloop
 endfacet
 facet normal -1.000000e+00 -0.000000e+00 -0.000000e+00
   outer loop
     vertex -6.750000e-01  6.125000e-01  4.950000e-01
     vertex -6.750000e-01  6.125000e-01  5.000000e-03
     vertex -6.750000e-01 -6.125000e-01  4.950000e-01
   endloop
 endfacet
 facet normal -1.000000e+00  0.000000e+00  0.000000e+00
   outer loop
     vertex -6.750000e-01  6.125000e-01  5.000000e-03
     vertex -6.750000e-01 -6.125000e-01  5.000000e-03
     vertex -6.750000e-01 -6.125000e-01  4.950000e-01
   endloop
 endfacet
 facet normal  1.000000e+00 -0.000000e+00  0.000000e+00
   outer loop
     vertex  6.750000e-01 -6.125000e-01  4.950000e-01
     vertex  6.750000e-01  6.125000e-01  5.000000e-03
     vertex  6.750000e-01  6.125000e-01  4.950000e-01
   endloop
 endfacet
 facet normal  1.000000e+00 -0.000000e+00  0.000000e+00
   outer loop
     vertex  6.750000e-01 -6.125000e-01  4.950000e-01
     vertex  6.750000e-01 -6.125000e-01  5.000000e-03
     vertex  6.750000e-01  6.125000e-01  5.000000e-03
   endloop
 endfacet
 facet normal  0.000000e+00 -1.000000e+00  0.000000e+00
   outer loop
     vertex -6.750000e-01 -6.125000e-01  5.000000e-03
     vertex  6.750000e-01 -6.125000e-01  5.000000e-03
     vertex  6.750000e-01 -6.125000e-01  4.950000e-01
   endloop
 endfacet
 facet normal  0.000000e+00 -1.000000e+00  0.000000e+00
   outer loop
     vertex -6.750000e-01 -6.125000e-01  4.950000e-01
     vertex -6.750000e-01 -6.125000e-01  5.000000e-03
     vertex  6.750000e-01 -6.125000e-01  4.950000e-01
   endloop
 endfacet
 facet normal  0.000000e+00  1.000000e+00  0.000000e+00
   outer loop
     vertex  6.750000e-01  6.125000e-01  4.950000e-01
     vertex  6.750000e-01  6.125000e-01  5.000000e-03
     vertex -6.750000e-01  6.125000e-01  5.000000e-03
   endloop
 endfacet
 facet normal  0.000000e+00  1.000000e+00 -0.000000e+00
   outer loop
     vertex  6.750000e-01  6.125000e-01  4.950000e-01
     vertex -6.750000e-01  6.125000e-01  5.000000e-03
     vertex -6.750000e-01  6.125000e-01  4.950000e-01
   endloop
 endfacet
 facet normal  0.000000e+00  0.000000e+00 -1.000000e+00
   outer loop
     vertex -6.750000e-01 -6.125000e-01  5.000000e-03
     vertex -6.750000e-01  6.125000e-01  5.000000e-03
     vertex  6.750000e-01  6.125000e-01  5.000000e-03
   endloop
 endfacet
 facet normal  0.000000e+00  0.000000e+00 -1.000000e+00
   outer loop
     vertex  6.750000e-01 -6.125000e-01  5.000000e-03
     vertex -6.750000e-01 -6.125000e-01  5.000000e-03
     vertex  6.750000e-01  6.125000e-01  5.000000e-03
   endloop
 endfacet
 facet normal  0.000000e+00  0.000000e+00  1.000000e+00
   outer loop
     vertex  6.750000e-01  6.125000e-01  4.950000e-01
     vertex -6.750000e-01  6.125000e-01  4.950000e-01
     vertex -6.750000e-01 -6.125000e-01  4.950000e-01
   endloop
 endfacet
 facet normal -0.000000e+00  0.000000e+00  1.000000e+00
   outer loop
     vertex  6.750000e-01  6.125000e-01  4.950000e-01
     vertex -6.750000e-01 -6.125000e-01  4.950000e-01
     vertex  6.750000e-01 -6.125000e-01  4.950000e-01
   endloop
 endfacet
endsolid
